<svg
  xmlns="http://www.w3.org/2000/svg"
  width="64"
  height="64"
  viewBox="0 0 64 64"
  fill="none"
>
  <!-- Background -->
  <rect width="64" height="64" rx="16" fill="#16A34A" />

  <!-- Large Wrench -->
  <path
    d="
    M43 18
    C40.5 18 38.3 19 36.7 20.7
    C34.7 22.7 33.9 25.5 34.4 28
    L20.5 41.9
    C19.5 42.9 19.5 44.6 20.5 45.6
    L23.4 48.5
    C24.4 49.5 26.1 49.5 27.1 48.5
    L41 34.6
    C43.5 35.1 46.3 34.3 48.3 32.3
    C51 29.6 51.5 25.5 49.8 22
    L45 26.8
    L39.2 21
    L44 16.2
    C43.7 16.1 43.3 18 43 18
    Z"
    fill="white"
  />
</svg>